<svg xmlns="http://www.w3.org/2000/svg" xmlns:xlink="http://www.w3.org/1999/xlink" id="Layer_1" x="0px" y="0px" viewBox="0 0 100 100" style="enable-background:new 0 0 100 100;" xml:space="preserve"><style type="text/css">	.st0{fill:#FFF4B0;}	.st1{fill:#FFCC02;}	.st2{fill:#8DD1E6;}	.st3{fill:none;}	.st4{fill:#F29EBC;}	.st5{fill:#E73D70;}	.st6{fill:#2EACC9;}	.st7{fill:#C7D97F;}	.st8{fill:#72B52B;}	.st9{fill:#F1F1F0;}	.st10{fill:#FFFFFF;}</style><path class="st1" d="M97.8,28.8c-1.6-1.6-11.4,5.2-26.1,10.3s-27.3-1.5-47.4,9.8C1.9,61.5,9.7,94.8,11.1,93.7s11.5-14.3,20.3-19.9 c15.2-9.7,35.1-13,48.8-21.1C89.9,46.9,99.4,30.4,97.8,28.8z"></path><circle class="st1" cx="45.7" cy="22.5" r="14.9"></circle><path class="st7" d="M20.8,56.1c20.9-13.7,34.9-7.3,50.3-13.7c14.3-6,24-13.4,26.8-13.1c0-0.2-0.1-0.4-0.2-0.5 c-1.6-1.6-11.4,5.2-26.1,10.3c-14.7,5.1-27.3-1.5-47.4,9.8C16.2,53.4,12.1,60.7,10.1,68C12.4,63.5,15.9,59.3,20.8,56.1z"></path><path class="st7" d="M31.6,25.4c0-8.2,6.7-14.9,14.9-14.9c6.2,0,11.5,3.8,13.8,9.2C59,12.8,53,7.6,45.7,7.6 c-8.2,0-14.9,6.7-14.9,14.9c0,2,0.4,3.9,1.1,5.7C31.7,27.3,31.6,26.4,31.6,25.4z"></path><path class="st8" d="M11.1,93.7c1.4-1.2,11.5-14.3,20.3-19.9c15.2-9.7,35.1-13,48.8-21.1c9.1-5.4,18-20.1,17.8-23.3 c-2.8-0.2-12.6,7.2-26.8,13.1c-15.4,6.4-29.4,0-50.3,13.7c-4.9,3.2-8.4,7.4-10.7,11.9C6.7,81.1,10.2,94.4,11.1,93.7z"></path><path class="st8" d="M46.5,10.5c-8.2,0-14.9,6.7-14.9,14.9c0,0.9,0.1,1.9,0.3,2.7c2.2,5.4,7.6,9.2,13.8,9.2 c8.2,0,14.9-6.7,14.9-14.9c0-0.9-0.1-1.9-0.3-2.7C58.1,14.3,52.7,10.5,46.5,10.5z"></path></svg>