<svg xmlns="http://www.w3.org/2000/svg" xmlns:xlink="http://www.w3.org/1999/xlink" id="Layer_1" x="0px" y="0px" viewBox="0 0 100 100" style="enable-background:new 0 0 100 100;" xml:space="preserve"><style type="text/css">	.st0{fill:#FFF4B0;}	.st1{fill:#FFCC02;}	.st2{fill:#8DD1E6;}	.st3{fill:none;}	.st4{fill:#F29EBC;}	.st5{fill:#E73D70;}	.st6{fill:#2EACC9;}	.st7{fill:#C7D97F;}	.st8{fill:#72B52B;}	.st9{fill:#F1F1F0;}	.st10{fill:#FFFFFF;}</style><path class="st0" d="M8.1,93.9c0,0.4,0,0.8-0.1,1.2C17.6,74.8,91.5,67,93,37.7c0.3-5.7-1.3-13.3-7.2-18.7c2.2,3.9,3.1,8.2,3.2,11.9 C89.4,60.2,16.3,73.1,8.1,93.9z"></path><path class="st1" d="M66.3,12.1c-17-0.9-54.4,18.6-58.2,81.9C16.3,73.1,89.4,60.2,89,30.8c-0.1-3.6-0.9-7.9-3.2-11.9 C81.7,15.2,75.5,12.4,66.3,12.1z"></path></svg>