<svg xmlns="http://www.w3.org/2000/svg" xmlns:xlink="http://www.w3.org/1999/xlink" id="Layer_1" x="0px" y="0px" viewBox="0 0 100 100" style="enable-background:new 0 0 100 100;" xml:space="preserve"><style type="text/css">	.st0{fill:#FFF4B0;}	.st1{fill:#FFCC02;}	.st2{fill:#8DD1E6;}	.st3{fill:none;}	.st4{fill:#F29EBC;}	.st5{fill:#E73D70;}	.st6{fill:#2EACC9;}	.st7{fill:#C7D97F;}	.st8{fill:#72B52B;}	.st9{fill:#F1F1F0;}	.st10{fill:#FFFFFF;}</style><path class="st0" d="M20,31.5c12.5,0,23.3,3.1,32.3,9.1c1.1-1,2.3-1.8,3.4-2.7c-9.5-7.6-21.4-11.4-35.4-11.4c-1.9,0-3.7,0.1-5.4,0.2 C10.5,33.4,8,41.4,8,49.9c0.8-6.6,3.1-12.8,6.6-18.2C16.3,31.6,18.1,31.5,20,31.5z"></path><path class="st2" d="M34.4,89.4c0.1,0,0.2,0.1,0.2,0.1c0-1.5,0-3.1,0.1-4.8C34.5,86.3,34.4,87.9,34.4,89.4z"></path><path class="st0" d="M83.6,28.7c1.2,0,2.4-0.1,3.7,0C79.9,16,66.2,7.5,50.5,7.5c-12,0-22.9,5-30.6,13c0.1,0,0.3,0,0.4,0 c1.6,0,3.2,0.1,4.8,0.2c7-5.2,15.7-8.2,25.1-8.2C63.7,12.5,75.8,18.8,83.6,28.7z"></path><path class="st0" d="M89.9,39.9c1.8,4.7,2.8,9.8,2.8,15.1c0,0,0,0.1,0,0.1c0.2-1.7,0.3-3.4,0.3-5.1c0-5.3-1-10.4-2.8-15.1 c-8.3-0.8-16.5,0.6-24.3,4.2c1.1,1.1,2.2,2.3,3.2,3.5C75.9,40.1,82.8,39.2,89.9,39.9z"></path><path class="st0" d="M77.1,70c-3-10.6-8.6-20-16.8-27.9c-10.5,6.6-16.9,18.3-19,34.7c-0.4,2.8-0.6,5.6-0.6,8.2 c0.1-1,0.2-2.1,0.3-3.2c2.1-16.4,8.5-28.1,19-34.7C68.2,55,73.9,64.4,76.8,75c0.7,2.6,1.2,5,1.5,7.1c0.3-0.2,0.5-0.5,0.8-0.7 C78.9,78.7,78.4,74.7,77.1,70z"></path><path class="st1" d="M35.4,76.2c1.1-8.4,3.2-15.8,6.4-22.1c2.7-5.3,6.2-9.8,10.4-13.5c-9-6-19.8-9.1-32.3-9.1 c-1.9,0-3.7,0.1-5.4,0.2C11.1,37.1,8.7,43.2,8,49.9c0,0,0,0.1,0,0.1c0,17.8,10.9,33,26.4,39.4c0.1-1.5,0.2-3.1,0.3-4.7 C34.8,82,35,79.1,35.4,76.2z"></path><path class="st1" d="M61.2,34.7c6.6-3.3,13.4-5.3,20.4-5.9c0.7-0.1,1.4-0.1,2-0.1c-7.8-9.9-19.9-16.3-33.4-16.3 c-9.4,0-18.1,3-25.1,8.2c5.3,0.3,10.5,1.2,15.3,2.7C48.1,25.7,55.2,29.5,61.2,34.7z"></path><path class="st1" d="M83,68.7c0.7,2.5,1.2,4.8,1.5,6.8c4.4-5.8,7.3-12.8,8.2-20.4c0,0,0-0.1,0-0.1c0-5.3-1-10.4-2.8-15.1 c-7.1-0.7-14.1,0.2-20.8,2.8c2.6,3,4.9,6.2,6.9,9.5C79.1,57.4,81.4,62.9,83,68.7z"></path><path class="st1" d="M60,47.1c-10.5,6.6-16.9,18.3-19,34.7c-0.1,1.1-0.3,2.1-0.3,3.2c-0.1,2.3-0.1,4.5,0,6.4 c3.1,0.7,6.4,1.1,9.8,1.1c10.7,0,20.4-3.9,27.9-10.4C78,80,77.6,77.6,76.8,75C73.9,64.4,68.2,55,60,47.1z"></path></svg>