<svg xmlns="http://www.w3.org/2000/svg" xmlns:xlink="http://www.w3.org/1999/xlink" id="Layer_1" x="0px" y="0px" viewBox="0 0 100 100" style="enable-background:new 0 0 100 100;" xml:space="preserve"><style type="text/css">	.st0{fill:#FFF4B0;}	.st1{fill:#FFCC02;}	.st2{fill:#8DD1E6;}	.st3{fill:none;}	.st4{fill:#F29EBC;}	.st5{fill:#E73D70;}	.st6{fill:#2EACC9;}	.st7{fill:#C7D97F;}	.st8{fill:#72B52B;}	.st9{fill:#F1F1F0;}	.st10{fill:#FFFFFF;}</style><path class="st4" d="M53.6,16c1.7,1.9,3.6,4.1,5.4,6.9c0.1,0,0.2,0,0.2,0c1.2,0.2,2.1,0.3,3,0.5c-2.7-5-5.7-8.8-8.3-11.6 c-0.9-0.1-1.8-0.1-2.8-0.1c-5.8,0-11.3,1.2-16.4,3.3c1.4,0.3,2.8,0.6,4.2,1.1c1,0.3,1.9,0.6,2.7,0.9c2.9-0.6,6-1,9.1-1 C51.8,15.9,52.7,15.9,53.6,16z"></path><path class="st4" d="M93.7,54.1c0-9.7-3.3-18.7-8.8-25.9c-1.8,3.6-3.9,6.8-6.2,9.5c-1.3,1.5-2.7,2.9-4.1,4c0.1,0.5,0.2,0.9,0.3,1.4 c0,0.1,0,0.2,0.1,0.3c0.5,0.1,1.1,0.2,1.7,0.4c0.6-0.6,1.2-1.2,1.7-1.9c2.3-2.7,4.4-5.8,6.2-9.5c5.5,7.2,8.8,16.1,8.8,25.9 c0,0.1,0,0.3,0,0.4c0,0,0,0,0,0.1C93.6,57.3,93.7,55.7,93.7,54.1z"></path><path class="st4" d="M80.6,25c0.2-0.3,0.3-0.7,0.5-1c-5.3-5.2-11.9-9.1-19.3-11c1.3,1.8,2.5,3.6,3.7,5.5c5.3,1.9,10,4.9,14.1,8.6 C80,26.3,80.3,25.7,80.6,25z"></path><path class="st4" d="M26.5,23.5c2.7,0,6.5,0.4,10.7,1.7c3.4,1.1,6,2.2,8.4,3.2c3.7,1.6,7.2,3,12.5,3.9c2.9,0.5,5.1,0.8,6.5,0.9 c0.9,2.2,1.8,4.5,2.6,7c0.5-0.2,0.9-0.5,1.3-0.7c-1-3.9-2.3-7.4-3.6-10.6c-1.5-0.1-3.7-0.4-6.5-0.9c-5.4-0.9-8.8-2.3-12.5-3.9 c-2.5-1-5-2.1-8.4-3.2c-4.2-1.3-8-1.7-10.7-1.7C16.1,26.7,9,38.9,8.6,52.8c0,0,0,0,0.1,0C10.3,40.7,16.9,30.2,26.5,23.5z"></path><path class="st5" d="M59,22.8c-1.8-2.7-3.7-5-5.4-6.9c-0.9-0.1-1.8-0.1-2.8-0.1c-3.1,0-6.2,0.3-9.1,1c2.4,0.9,4.4,1.7,6.2,2.5 C51.4,20.8,54.4,22.1,59,22.8z"></path><path class="st5" d="M84.6,32.5c-1.8,3.6-3.9,6.8-6.2,9.5c-0.6,0.7-1.2,1.3-1.7,1.9c2.7,0.9,6.4,2.7,10.5,6.9c2.2,2.2,4.3,5.1,6.2,8 c0-0.1,0-0.3,0-0.4C93.4,48.7,90.1,39.7,84.6,32.5z"></path><path class="st5" d="M68.8,24.8c0.2,0.4,0.4,0.9,0.6,1.3c1.4,3.2,2.6,6.5,3.6,9.9c2.8-2.7,4.9-6,6.5-9c-4.1-3.7-8.8-6.7-14.1-8.6 c0.9,1.6,1.8,3.2,2.7,4.9C68.4,23.8,68.6,24.3,68.8,24.8z"></path><path class="st5" d="M83.5,54.5L83.5,54.5c-3.3-3.3-6-4.7-7.8-5.4c0.1,1.5,0.2,3,0.2,4.5c0,2.2-0.1,4.4-0.3,6.6 c-0.2,2.1-0.5,4.2-1,6.3C73.3,73,71,79.8,67.9,86.7c-1.4,3-2.8,5.7-4.1,8.1c0.8-0.3,1.6-0.5,2.4-0.8c11.3-4.3,20.2-13.1,24.6-24.4 c0.4-1,0.7-1.9,1-2.9C89.6,62.6,86.6,57.6,83.5,54.5z"></path><path class="st5" d="M20.8,45.7c8.2-2.9,15.6-2.5,22.7-2.2c7.4,0.3,14.4,0.7,22.2-2.5c0.5-0.2,1.1-0.5,1.6-0.7 c-0.8-2.5-1.7-4.9-2.6-7c-1.5-0.1-3.7-0.4-6.5-0.9c-5.4-0.9-8.8-2.3-12.5-3.9c-2.5-1-5-2.1-8.4-3.2c-4.2-1.3-8-1.7-10.7-1.7 c-9.5,6.7-16.2,17.2-17.8,29.2c0.3-0.3,0.7-0.6,1-0.8C13.2,49.2,16.9,47.1,20.8,45.7z"></path><path class="st5" d="M69.8,44.9c-0.7,0.4-1.4,0.7-2.1,1c-8.8,3.6-16.8,3.2-24.4,2.9c-7-0.3-13.5-0.6-20.7,1.9 c-5.8,2-10.3,5.7-13.6,9.1c0.2,1.1,0.3,2.3,0.6,3.4c1.7,7.8,5.5,14.8,10.8,20.4c0.4-0.1,0.9-0.1,1.3-0.2l0.4-0.1 c0.1,0,0.2,0,0.4-0.1l0.7-0.2l0.7-0.2l0.4-0.1c0.1,0,0.2-0.1,0.4-0.1l0.7-0.2c0.2-0.1,0.5-0.2,0.7-0.2c0.5-0.2,0.9-0.4,1.4-0.5 c0.2-0.1,0.5-0.2,0.7-0.3c0.2-0.1,0.5-0.2,0.7-0.3l0.7-0.3l0.4-0.2l0.4-0.2L31,80l0.7-0.4l0.3-0.2l0.3-0.2l0.7-0.4 c1.8-1,3.6-2.2,5.4-3.5c1.7-1.2,3.4-2.6,5-4c0.8-0.7,1.6-1.4,2.4-2.2c0.8-0.8,1.5-1.5,2.3-2.3c-0.6,0.9-1.2,1.8-1.8,2.7 c-0.6,0.9-1.3,1.8-2,2.7c-1.4,1.7-2.8,3.4-4.3,5c-1.2,1.3-2.5,2.5-3.8,3.7c-0.4,0.3-0.7,0.6-1.1,1l-0.6,0.5l-0.3,0.3L33.9,83 l-0.7,0.5l-0.7,0.5l-0.3,0.3l-0.3,0.3l-0.7,0.5c-0.2,0.2-0.5,0.3-0.7,0.5c-0.2,0.2-0.5,0.3-0.7,0.5c-0.5,0.3-1,0.6-1.5,0.9 c-0.3,0.1-0.5,0.3-0.8,0.4l-0.8,0.4c-0.1,0.1-0.3,0.1-0.4,0.2l-0.4,0.2l-0.1,0.1c1.1,0.8,2.2,1.5,3.3,2.2c6.4,3.9,13.9,6.1,22,6.1 c1.9,0,3.8-0.1,5.6-0.4c2-3.1,4.3-7.2,6.4-11.9c3-6.6,6.2-15.3,7.2-24.6C70.8,54.9,70.7,49.9,69.8,44.9z"></path></svg>